<svg width="16" height="12" viewBox="0 0 16 12" fill="none" xmlns="http://www.w3.org/2000/svg">
<path d="M16 0.285706H0V11.7143H16V0.285706Z" fill="#F0F0F0"/>
<path d="M16 1.71411H0V3.14254H16V1.71411Z" fill="#D80027"/>
<path d="M16 4.57135H0V5.99978H16V4.57135Z" fill="#D80027"/>
<path d="M16 7.42822H0V8.85666H16V7.42822Z" fill="#D80027"/>
<path d="M16 10.2855H0V11.7139H16V10.2855Z" fill="#D80027"/>
<path d="M9.71429 0.285706H0V6.57142H9.71429V0.285706Z" fill="#283991"/>
<path d="M7.63908 1.3291L7.74357 1.65088H8.08191L7.80831 1.84991L7.91269 2.17157L7.63908 1.97278L7.36527 2.17157L7.46985 1.84991L7.19604 1.65088H7.53447L7.63908 1.3291Z" fill="#EFEFEF"/>
<path d="M3.06767 1.3291L3.17216 1.65088H3.5105L3.2369 1.84991L3.34127 2.17157L3.06767 1.97278L2.79386 2.17157L2.89844 1.84991L2.62463 1.65088H2.96306L3.06767 1.3291Z" fill="#EFEFEF"/>
<path d="M5.35338 1.3291L5.45787 1.65088H5.79621L5.5226 1.84991L5.62698 2.17157L5.35338 1.97278L5.07957 2.17157L5.18415 1.84991L4.91034 1.65088H5.24877L5.35338 1.3291Z" fill="#EFEFEF"/>
<path d="M0.781965 1.3291L0.886455 1.65088H1.2248L0.951194 1.84991L1.05557 2.17157L0.781965 1.97278L0.508158 2.17157L0.612735 1.84991L0.338928 1.65088H0.677358L0.781965 1.3291Z" fill="#EFEFEF"/>
<path d="M7.63908 2.46576L7.74357 2.78754H8.08191L7.80831 2.98656L7.91269 3.30823L7.63908 3.10944L7.36527 3.30823L7.46985 2.98656L7.19604 2.78754H7.53447L7.63908 2.46576Z" fill="#EFEFEF"/>
<path d="M3.06767 2.46576L3.17216 2.78754H3.5105L3.2369 2.98656L3.34127 3.30823L3.06767 3.10944L2.79386 3.30823L2.89844 2.98656L2.62463 2.78754H2.96306L3.06767 2.46576Z" fill="#EFEFEF"/>
<path d="M5.35338 2.46576L5.45787 2.78754H5.79621L5.5226 2.98656L5.62698 3.30823L5.35338 3.10944L5.07957 3.30823L5.18415 2.98656L4.91034 2.78754H5.24877L5.35338 2.46576Z" fill="#EFEFEF"/>
<path d="M0.781965 2.46576L0.886455 2.78754H1.2248L0.951194 2.98656L1.05557 3.30823L0.781965 3.10944L0.508158 3.30823L0.612735 2.98656L0.338928 2.78754H0.677358L0.781965 2.46576Z" fill="#EFEFEF"/>
<path d="M7.63908 3.60242L7.74357 3.9242H8.08191L7.80831 4.12299L7.91269 4.44489L7.63908 4.2461L7.36527 4.44489L7.46985 4.12299L7.19604 3.9242H7.53447L7.63908 3.60242Z" fill="#EFEFEF"/>
<path d="M3.06767 3.60242L3.17216 3.9242H3.5105L3.2369 4.12299L3.34127 4.44489L3.06767 4.2461L2.79386 4.44489L2.89844 4.12299L2.62463 3.9242H2.96306L3.06767 3.60242Z" fill="#EFEFEF"/>
<path d="M5.35338 3.60242L5.45787 3.9242H5.79621L5.5226 4.12299L5.62698 4.44489L5.35338 4.2461L5.07957 4.44489L5.18415 4.12299L4.91034 3.9242H5.24877L5.35338 3.60242Z" fill="#EFEFEF"/>
<path d="M0.781965 3.60242L0.886455 3.9242H1.2248L0.951194 4.12299L1.05557 4.44489L0.781965 4.2461L0.508158 4.44489L0.612735 4.12299L0.338928 3.9242H0.677358L0.781965 3.60242Z" fill="#EFEFEF"/>
<path d="M7.63908 4.73901L7.74357 5.06091H8.08191L7.80831 5.25959L7.91269 5.58148L7.63908 5.38249L7.36527 5.58148L7.46985 5.25959L7.19604 5.06091H7.53447L7.63908 4.73901Z" fill="#EFEFEF"/>
<path d="M3.06767 4.73901L3.17216 5.06091H3.5105L3.2369 5.25959L3.34127 5.58148L3.06767 5.38249L2.79386 5.58148L2.89844 5.25959L2.62463 5.06091H2.96306L3.06767 4.73901Z" fill="#EFEFEF"/>
<path d="M5.35338 4.73901L5.45787 5.06091H5.79621L5.5226 5.25959L5.62698 5.58148L5.35338 5.38249L5.07957 5.58148L5.18415 5.25959L4.91034 5.06091H5.24877L5.35338 4.73901Z" fill="#EFEFEF"/>
<path d="M0.781965 4.73901L0.886455 5.06091H1.2248L0.951194 5.25959L1.05557 5.58148L0.781965 5.38249L0.508158 5.58148L0.612735 5.25959L0.338928 5.06091H0.677358L0.781965 4.73901Z" fill="#EFEFEF"/>
<path d="M8.77574 0.760925L8.88023 1.08271H9.21857L8.94485 1.2815L9.04934 1.6034L8.77574 1.40437L8.50193 1.6034L8.60651 1.2815L8.3327 1.08271H8.67104L8.77574 0.760925Z" fill="#EFEFEF"/>
<path d="M4.20427 0.760925L4.30876 1.08271H4.6471L4.37338 1.2815L4.47787 1.6034L4.20427 1.40437L3.93046 1.6034L4.03504 1.2815L3.76123 1.08271H4.09957L4.20427 0.760925Z" fill="#EFEFEF"/>
<path d="M6.49003 0.760925L6.59452 1.08271H6.93286L6.65915 1.2815L6.76364 1.6034L6.49003 1.40437L6.21623 1.6034L6.3208 1.2815L6.047 1.08271H6.38534L6.49003 0.760925Z" fill="#EFEFEF"/>
<path d="M1.91856 0.760925L2.02305 1.08271H2.36139L2.08767 1.2815L2.19216 1.6034L1.91856 1.40437L1.64475 1.6034L1.74933 1.2815L1.47552 1.08271H1.81387L1.91856 0.760925Z" fill="#EFEFEF"/>
<path d="M8.77574 1.89758L8.88023 2.21916H9.21857L8.94485 2.41815L9.04934 2.74005L8.77574 2.54103L8.50193 2.74005L8.60651 2.41815L8.3327 2.21916H8.67104L8.77574 1.89758Z" fill="#EFEFEF"/>
<path d="M4.20427 1.89758L4.30876 2.21916H4.6471L4.37338 2.41815L4.47787 2.74005L4.20427 2.54103L3.93046 2.74005L4.03504 2.41815L3.76123 2.21916H4.09957L4.20427 1.89758Z" fill="#EFEFEF"/>
<path d="M6.49003 1.89758L6.59452 2.21916H6.93286L6.65915 2.41815L6.76364 2.74005L6.49003 2.54103L6.21623 2.74005L6.3208 2.41815L6.047 2.21916H6.38534L6.49003 1.89758Z" fill="#EFEFEF"/>
<path d="M1.91856 1.89758L2.02305 2.21916H2.36139L2.08767 2.41815L2.19216 2.74005L1.91856 2.54103L1.64475 2.74005L1.74933 2.41815L1.47552 2.21916H1.81387L1.91856 1.89758Z" fill="#EFEFEF"/>
<path d="M8.77574 3.03418L8.88023 3.35576H9.21857L8.94485 3.55475L9.04934 3.87665L8.77574 3.67763L8.50193 3.87665L8.60651 3.55475L8.3327 3.35576H8.67104L8.77574 3.03418Z" fill="#EFEFEF"/>
<path d="M4.20427 3.03418L4.30876 3.35576H4.6471L4.37338 3.55475L4.47787 3.87665L4.20427 3.67763L3.93046 3.87665L4.03504 3.55475L3.76123 3.35576H4.09957L4.20427 3.03418Z" fill="#EFEFEF"/>
<path d="M6.49003 3.03418L6.59452 3.35576H6.93286L6.65915 3.55475L6.76364 3.87665L6.49003 3.67763L6.21623 3.87665L6.3208 3.55475L6.047 3.35576H6.38534L6.49003 3.03418Z" fill="#EFEFEF"/>
<path d="M1.91856 3.03418L2.02305 3.35576H2.36139L2.08767 3.55475L2.19216 3.87665L1.91856 3.67763L1.64475 3.87665L1.74933 3.55475L1.47552 3.35576H1.81387L1.91856 3.03418Z" fill="#EFEFEF"/>
<path d="M8.77574 4.17084L8.88023 4.4925H9.21857L8.94485 4.69141L9.04934 5.01331L8.77574 4.81428L8.50193 5.01331L8.60651 4.69141L8.3327 4.4925H8.67104L8.77574 4.17084Z" fill="#EFEFEF"/>
<path d="M4.20427 4.17084L4.30876 4.4925H4.6471L4.37338 4.69141L4.47787 5.01331L4.20427 4.81428L3.93046 5.01331L4.03504 4.69141L3.76123 4.4925H4.09957L4.20427 4.17084Z" fill="#EFEFEF"/>
<path d="M6.49003 4.17084L6.59452 4.4925H6.93286L6.65915 4.69141L6.76364 5.01331L6.49003 4.81428L6.21623 5.01331L6.3208 4.69141L6.047 4.4925H6.38534L6.49003 4.17084Z" fill="#EFEFEF"/>
<path d="M1.91856 4.17084L2.02305 4.4925H2.36139L2.08767 4.69141L2.19216 5.01331L1.91856 4.81428L1.64475 5.01331L1.74933 4.69141L1.47552 4.4925H1.81387L1.91856 4.17084Z" fill="#EFEFEF"/>
<path d="M8.77574 5.30725L8.88023 5.62912H9.21857L8.94485 5.82803L9.04934 6.14992L8.77574 5.9509L8.50193 6.14992L8.60651 5.82803L8.3327 5.62912H8.67104L8.77574 5.30725Z" fill="#EFEFEF"/>
<path d="M4.20427 5.30725L4.30876 5.62912H4.6471L4.37338 5.82803L4.47787 6.14992L4.20427 5.9509L3.93046 6.14992L4.03504 5.82803L3.76123 5.62912H4.09957L4.20427 5.30725Z" fill="#EFEFEF"/>
<path d="M6.49003 5.30725L6.59452 5.62912H6.93286L6.65915 5.82803L6.76364 6.14992L6.49003 5.9509L6.21623 6.14992L6.3208 5.82803L6.047 5.62912H6.38534L6.49003 5.30725Z" fill="#EFEFEF"/>
<path d="M1.91856 5.30725L2.02305 5.62912H2.36139L2.08767 5.82803L2.19216 6.14992L1.91856 5.9509L1.64475 6.14992L1.74933 5.82803L1.47552 5.62912H1.81387L1.91856 5.30725Z" fill="#EFEFEF"/>
</svg>
